<svg xmlns="http://www.w3.org/2000/svg" width="45" height="60" viewBox="0 0 3333.34 2810.59" shape-rendering="geometricPrecision" text-rendering="geometricPrecision" image-rendering="optimizeQuality" fill-rule="evenodd" clip-rule="evenodd"><path d="M281.24 0H3052.1c154.68 0 281.24 126.56 281.24 281.24s-126.56 281.24-281.24 281.24H281.24C126.55 562.48 0 435.92 0 281.24S126.56 0 281.24 0zm0 2248.12H3052.1c154.68 0 281.24 126.56 281.24 281.23 0 154.69-126.56 281.24-281.24 281.24H281.24C126.55 2810.59 0 2684.03 0 2529.35s126.56-281.23 281.24-281.23zm0-1124.06H3052.1c154.68 0 281.24 126.56 281.24 281.24 0 154.69-126.56 281.24-281.24 281.24H281.24C126.55 1686.54 0 1559.98 0 1405.3s126.56-281.24 281.24-281.24z"/></svg>